# xmcd
#
# Track frame offsets:
#	150
#	11053
#	22433
#	31565
#	42966
#	55437
#	66166
#	77267
#	88623
#	100690
#	112271
#	124405
#	136470
#	148185
#	168297
#	184988
#	199432
#	214117
#	227918
#
# Disc length: 3211 seconds
#
# Revision: 1
# Processed by: cddbd v1.5.2PL0 Copyright (c) Steve Scherf et al.
# Submitted via: audiograbber 1.83.01
#
DISCID=1a0c8913
DTITLE=Manfred Mann - Original Hits
DYEAR=1995
DGENRE=
TTITLE0=Do Wah Diddy Diddy
TTITLE1=Pretty Flamingo
TTITLE2=5-4-3-2-1
TTITLE3=Sha La La
TTITLE4=Come Tomorrow
TTITLE5=Oh No Not My Baby 
TTITLE6=Hubble Bubble (Toil And Trouble)
TTITLE7=If You Gotta Go, Go Now
TTITLE8=The One In The Middle
TTITLE9=Hi Lili Hi Lo
TTITLE10=The Way You Do The Things You Do
TTITLE11=There's No Living Without Your Loving
TTITLE12=Since I Don't Have You
TTITLE13=With God On Our Side
TTITLE14=Stormy Monday Blues
TTITLE15=I've Got My Mojo Working
TTITLE16=I'll Make It Up With You
TTITLE17=You Gave Me Somebody To Love
TTITLE18=Mighty Quinn
EXTD=
EXTT0=
EXTT1=
EXTT2=
EXTT3=
EXTT4=
EXTT5=
EXTT6=
EXTT7=
EXTT8=
EXTT9=
EXTT10=
EXTT11=
EXTT12=
EXTT13=
EXTT14=
EXTT15=
EXTT16=
EXTT17=
EXTT18=
PLAYORDER=
